<?xml version="1.0" standalone="no"?>
<!DOCTYPE svg PUBLIC "-//W3C//DTD SVG 20010904//EN"
 "http://www.w3.org/TR/2001/REC-SVG-20010904/DTD/svg10.dtd">
<svg version="1.0" xmlns="http://www.w3.org/2000/svg"
 width="1000.000000pt" height="1000.000000pt" viewBox="0 0 1000.000000 1000.000000"
 preserveAspectRatio="xMidYMid meet">
<metadata>
Created by potrace 1.14, written by Peter Selinger 2001-2017
</metadata>
<g transform="translate(0.000000,1000.000000) scale(0.100000,-0.100000)"
fill="#000000" stroke="none">
<path d="M2910 9522 c-31 -3 -84 -52 -512 -480 -262 -262 -475 -478 -473 -481
5 -4 21 -6 130 -15 44 -4 91 -9 105 -11 14 -2 59 -7 100 -10 41 -3 89 -7 105
-9 17 -2 66 -7 110 -10 44 -4 91 -9 105 -11 14 -2 59 -6 100 -10 41 -3 93 -8
115 -10 22 -2 69 -7 105 -10 36 -3 81 -8 100 -10 19 -3 64 -7 100 -10 36 -3
85 -7 110 -10 25 -2 70 -6 100 -9 l55 -5 44 102 c24 56 53 122 64 147 11 25
43 99 72 165 105 242 224 511 243 555 23 50 17 57 66 -70 111 -290 269 -700
378 -980 156 -402 170 -439 288 -745 50 -132 95 -249 100 -260 5 -11 49 -123
98 -250 163 -422 214 -550 222 -558 4 -5 12 4 18 20 6 15 35 87 65 158 30 72
150 362 267 645 117 283 261 632 320 775 119 285 391 948 460 1118 24 59 47
107 51 107 3 0 14 -19 24 -42 10 -24 30 -70 45 -103 14 -33 98 -223 185 -422
l158 -363 56 5 c31 3 70 7 86 10 17 2 66 7 110 10 44 3 94 8 110 10 17 2 66 7
110 10 44 3 91 8 105 10 14 3 55 7 90 10 36 3 85 7 110 10 25 2 74 7 110 10
36 3 81 8 100 10 19 2 69 7 110 10 41 3 86 8 100 10 30 5 184 18 223 19 15 1
27 2 27 3 0 2 -216 219 -480 483 -432 432 -483 480 -513 481 -125 2 -4049 3
-4077 1z"/>
<path d="M3731 8762 c-24 -59 -52 -125 -61 -147 -10 -22 -32 -74 -49 -115 -51
-119 -51 -121 -86 -200 -17 -41 -36 -74 -41 -74 -5 1 -54 5 -109 8 -55 4 -120
9 -145 11 -25 2 -81 7 -125 10 -44 3 -100 7 -125 10 -25 2 -81 7 -125 10 -44
3 -102 8 -130 10 -27 3 -88 7 -135 10 -47 3 -103 8 -125 10 -22 2 -76 6 -120
10 -44 3 -100 7 -125 10 -25 3 -85 7 -135 10 -49 3 -110 8 -135 10 -25 2 -76
7 -115 10 -69 5 -104 8 -260 20 -44 3 -93 8 -110 10 -16 2 -68 7 -115 10 -142
11 -182 14 -262 20 l-76 7 18 -84 c11 -45 42 -177 70 -293 101 -420 141 -584
196 -810 30 -126 57 -237 59 -245 2 -8 11 -46 19 -85 9 -38 24 -101 34 -139
l18 -68 54 -20 c30 -12 206 -77 390 -145 400 -149 503 -187 895 -332 165 -62
309 -115 320 -120 39 -17 242 -91 248 -91 4 0 35 -13 69 -29 35 -17 149 -61
253 -100 105 -38 312 -114 460 -169 l270 -99 200 3 c110 1 203 3 208 3 4 1 7
140 7 311 l0 309 -106 273 c-58 150 -116 300 -129 333 -13 33 -56 143 -95 245
-39 102 -93 241 -120 310 -50 128 -296 765 -400 1035 -32 83 -79 204 -104 270
-26 66 -51 128 -56 137 -6 10 -10 25 -10 33 0 36 -18 8 -59 -93z"/>
<path d="M6137 8803 c-2 -4 -53 -125 -112 -268 -59 -143 -116 -279 -126 -302
-10 -23 -19 -46 -19 -51 0 -5 -6 -22 -14 -38 -13 -25 -140 -333 -553 -1334
-58 -140 -133 -320 -166 -400 l-60 -145 -1 -332 c-1 -218 2 -334 9 -335 5 -2
118 -3 250 -2 l240 1 435 162 c239 89 453 170 475 180 22 10 99 40 170 66 72
25 151 55 176 65 25 11 68 26 95 35 27 9 58 20 69 25 11 5 47 19 80 30 33 12
69 25 80 30 11 5 101 39 200 75 184 68 367 136 1051 391 66 25 121 50 121 57
0 7 11 59 26 117 14 58 42 173 62 255 19 83 38 161 42 175 3 14 7 32 9 40 2 9
20 83 40 165 20 83 38 157 39 165 12 52 67 283 77 320 7 25 13 47 13 50 1 3 4
19 8 35 4 17 9 39 11 50 3 11 21 85 40 164 20 80 36 151 36 159 0 13 -4 13
-210 -3 -25 -2 -83 -6 -130 -10 -47 -3 -101 -8 -120 -10 -20 -2 -76 -7 -125
-10 -50 -3 -108 -7 -130 -10 -22 -2 -74 -7 -115 -10 -41 -3 -102 -8 -135 -10
-82 -6 -200 -15 -260 -20 -27 -2 -90 -7 -140 -10 -49 -3 -106 -8 -125 -10 -19
-2 -80 -7 -135 -10 -55 -3 -116 -8 -135 -10 -19 -2 -73 -7 -120 -10 -47 -3
-110 -7 -140 -10 -146 -12 -181 -15 -260 -21 -47 -3 -124 -9 -172 -13 -91 -7
-108 -5 -108 10 0 9 -172 425 -218 527 -11 24 -22 40 -25 35z"/>
<path d="M1507 6413 c-3 -5 -4 -531 -4 -1170 l0 -1162 106 -88 c58 -48 115
-96 126 -105 111 -93 300 -250 334 -278 24 -19 59 -49 80 -66 26 -23 848 -707
984 -819 9 -8 19 -15 20 -15 2 0 3 478 3 1063 l1 1063 138 200 c76 109 150
215 164 235 117 165 162 230 167 242 4 11 -10 11 -78 -5 -46 -10 -125 -27
-176 -38 -52 -11 -97 -22 -100 -24 -4 -2 -25 -7 -47 -10 -22 -4 -56 -11 -75
-16 -19 -5 -53 -12 -75 -16 -22 -3 -43 -8 -48 -11 -4 -2 -179 167 -388 376
-308 308 -388 383 -422 395 -23 8 -190 69 -372 135 -181 67 -330 121 -332 121
-1 0 -4 -3 -6 -7z"/>
<path d="M8330 6403 c-35 -16 -142 -55 -305 -112 -49 -18 -99 -36 -110 -41
-11 -5 -78 -30 -150 -56 l-130 -47 -377 -376 c-230 -228 -385 -376 -395 -375
-14 1 -436 93 -586 128 -18 4 -18 3 -1 -22 10 -15 36 -53 58 -84 23 -31 122
-173 221 -315 l180 -257 5 -1070 5 -1069 170 142 c94 78 204 170 245 204 41
34 77 64 80 67 3 3 57 48 120 100 63 52 120 99 126 105 10 9 80 68 414 344 74
62 144 120 155 129 11 10 90 75 175 146 85 71 157 136 160 145 3 9 5 536 5
1171 -1 1275 5 1174 -65 1143z"/>
<path d="M3848 5445 c-32 -51 -58 -95 -58 -98 0 -3 -96 -149 -213 -325 l-213
-319 0 -1554 1 -1554 204 -305 204 -305 242 -242 242 -243 691 0 690 0 243
243 242 242 206 309 205 309 0 1551 -1 1551 -216 325 c-119 179 -236 354 -259
389 -24 36 -53 77 -66 92 l-23 28 -82 -51 c-45 -28 -95 -58 -112 -68 -16 -9
-48 -28 -70 -41 l-40 -24 -680 0 c-617 -1 -684 1 -720 16 -22 9 -103 47 -180
84 -77 37 -149 71 -160 75 -17 6 -28 -5 -77 -85z"/>
<path d="M2260 2736 l0 -444 446 -446 c245 -245 447 -446 448 -446 2 0 2 232
2 515 l-1 515 -95 81 c-126 106 -213 181 -236 199 -43 35 -159 134 -164 139
-3 4 -84 73 -181 154 -98 81 -182 154 -189 162 -7 8 -16 15 -21 15 -5 0 -9
-196 -9 -444z"/>
<path d="M7560 3123 c-36 -31 -87 -75 -115 -98 -27 -23 -174 -147 -325 -275
-151 -127 -299 -252 -327 -277 l-53 -45 0 -516 0 -517 448 448 448 448 0 439
c-1 241 -3 440 -6 443 -3 3 -34 -20 -70 -50z"/>
</g>
</svg>
